# xmcd CD database file
#
# Track frame offsets:
#	150
#	15215
#	45498
#	67449
#	96866
#	116810
#	152709
#	170661
#	203632
#	225599
#
# Disc length: 3518 seconds
#
# Revision: 0
# Processed by: cddbd v1.5.1PL0 Copyright (c) Steve Scherf et al.
# Submitted via: CDex 1.51
#
DISCID=7f0dbc0a
DTITLE=PossumLogic - Playin' Live Volume II
DYEAR=2004
DGENRE=Blues
TTITLE0=Hard Time
TTITLE1=What Time Is It?
TTITLE2=Phreddy Went Down To New Orleans
TTITLE3=Katie May
TTITLE4=Doorstep
TTITLE5=What Would I Be Doing?
TTITLE6=Call On Me
TTITLE7=Troubled Crossing
TTITLE8=Roadside Attraction
TTITLE9=Everything's Gonna Be Alright
EXTD=YEAR: 2004
EXTT0=
EXTT1=
EXTT2=
EXTT3=
EXTT4=
EXTT5=
EXTT6=
EXTT7=
EXTT8=
EXTT9=
PLAYORDER=
